<svg width="507" height="82" viewBox="0 0 507 82" fill="none" xmlns="http://www.w3.org/2000/svg">
<g id="Frame 1" clip-path="url(#clip0)">
<g id="Logo">
<rect id="Rectangle 1" width="124" height="82" rx="34" fill="#FF0000"/>
<path id="Polygon 1" d="M87.5294 41L49.2353 61.8145L49.2353 20.1855L87.5294 41Z" fill="white"/>
</g>
<path id="YouTube" d="M165.785 41.7656L181.024 8.77344H197.52L173.48 55.4453V82H158.141V55.4453L134.101 8.77344H150.647L165.785 41.7656ZM191.491 54.2886C191.491 48.8905 192.53 44.0791 194.609 39.8545C196.688 35.6299 199.672 32.3608 203.561 30.0474C207.484 27.7339 212.027 26.5771 217.191 26.5771C224.533 26.5771 230.518 28.8236 235.145 33.3164C239.806 37.8092 242.404 43.9115 242.941 51.623L243.041 55.3447C243.041 63.6934 240.711 70.3991 236.05 75.4619C231.39 80.4912 225.137 83.0059 217.291 83.0059C209.445 83.0059 203.176 80.4912 198.482 75.4619C193.821 70.4326 191.491 63.5928 191.491 54.9424V54.2886ZM206.026 55.3447C206.026 60.5081 206.998 64.4645 208.943 67.2139C210.887 69.9297 213.67 71.2876 217.291 71.2876C220.812 71.2876 223.561 69.9465 225.539 67.2642C227.517 64.5483 228.507 60.2231 228.507 54.2886C228.507 49.2257 227.517 45.3029 225.539 42.52C223.561 39.7371 220.778 38.3457 217.191 38.3457C213.637 38.3457 210.887 39.7371 208.943 42.52C206.998 45.2694 206.026 49.5443 206.026 55.3447ZM278.403 76.4678C274.816 80.8265 269.853 83.0059 263.516 83.0059C257.682 83.0059 253.223 81.3294 250.139 77.9766C247.087 74.6237 245.528 69.7118 245.461 63.2407V27.583H259.996V62.7378C259.996 68.4041 262.578 71.2373 267.741 71.2373C272.67 71.2373 276.056 69.5273 277.9 66.1074V27.583H292.485V82H278.806L278.403 76.4678ZM353.346 20.9946H330.915V82H315.827V20.9946H293.698V8.77344H353.346V20.9946ZM384.131 76.4678C380.544 80.8265 375.581 83.0059 369.244 83.0059C363.41 83.0059 358.951 81.3294 355.866 77.9766C352.815 74.6237 351.256 69.7118 351.189 63.2407V27.583H365.724V62.7378C365.724 68.4041 368.306 71.2373 373.469 71.2373C378.398 71.2373 381.784 69.5273 383.628 66.1074V27.583H398.213V82H384.533L384.131 76.4678ZM452.033 55.2944C452.033 64.0119 450.172 70.8182 446.45 75.7134C442.728 80.575 437.531 83.0059 430.859 83.0059C424.958 83.0059 420.247 80.7427 416.727 76.2163L416.073 82H402.997V4.75H417.532V32.4614C420.885 28.5386 425.294 26.5771 430.759 26.5771C437.397 26.5771 442.594 29.0247 446.35 33.9199C450.138 38.7816 452.033 45.6382 452.033 54.4897V55.2944ZM437.498 54.2383C437.498 48.7396 436.626 44.7329 434.883 42.2183C433.139 39.6701 430.541 38.396 427.087 38.396C422.46 38.396 419.275 40.2904 417.532 44.0791V65.5542C419.309 69.3765 422.527 71.2876 427.188 71.2876C431.882 71.2876 434.967 68.9741 436.442 64.3472C437.146 62.1343 437.498 58.7646 437.498 54.2383ZM479.901 83.0059C471.921 83.0059 465.417 80.5583 460.387 75.6631C455.392 70.7679 452.894 64.2466 452.894 56.0991V54.6909C452.894 49.2257 453.95 44.3473 456.062 40.0557C458.174 35.7305 461.158 32.4111 465.014 30.0977C468.904 27.7507 473.329 26.5771 478.292 26.5771C485.735 26.5771 491.586 28.9242 495.844 33.6182C500.136 38.3122 502.281 44.9676 502.281 53.5845V59.519H467.629C468.099 63.0731 469.507 65.923 471.854 68.0688C474.235 70.2147 477.235 71.2876 480.857 71.2876C486.456 71.2876 490.831 69.2591 493.983 65.2021L501.125 73.1987C498.945 76.2834 495.995 78.6974 492.273 80.4409C488.551 82.1509 484.427 83.0059 479.901 83.0059ZM478.241 38.3457C475.358 38.3457 473.011 39.318 471.2 41.2627C469.423 43.2074 468.283 45.9902 467.78 49.6113H487.998V48.4546C487.931 45.2358 487.059 42.7547 485.383 41.0112C483.706 39.2342 481.326 38.3457 478.241 38.3457Z" fill="black"/>
</g>
<defs>
<clipPath id="clip0">
<rect width="507" height="82" fill="white"/>
</clipPath>
</defs>
</svg>
