<svg width="686" height="113" viewBox="0 0 686 113" fill="none" xmlns="http://www.w3.org/2000/svg">
<g clip-path="url(#clip0)">
<path d="M61.3496 78.5806C58.9167 82.0656 55.5138 84.6794 51.1411 86.4219C46.8013 88.1315 41.7381 88.9863 35.9517 88.9863C30.0994 88.9863 24.9048 87.6219 20.3677 84.8931C15.8306 82.1313 12.3127 78.2189 9.81396 73.1558C7.34814 68.0926 6.08236 62.224 6.0166 55.5498V49.2866C6.0166 38.4699 8.53174 30.0861 13.562 24.1353C18.6252 18.1844 25.7267 15.209 34.8667 15.209C42.3628 15.209 48.3958 17.1323 52.9658 20.979C57.5358 24.7928 60.3304 30.2176 61.3496 37.2534H51.8809C50.1055 27.7518 44.4505 23.001 34.916 23.001C28.5706 23.001 23.7541 25.2367 20.4663 29.708C17.2114 34.1465 15.5675 40.5905 15.5347 49.04V54.9087C15.5347 62.9637 17.3758 69.3748 21.0581 74.1421C24.7404 78.8765 29.7214 81.2437 36.001 81.2437C39.5518 81.2437 42.6587 80.8491 45.3218 80.0601C47.9849 79.271 50.1877 77.9395 51.9302 76.0654V59.939H35.3105V52.2456H61.3496V78.5806Z" fill="#5767F5"/>
<path d="M67.2735 60.8267C67.2735 55.5991 68.2927 50.8976 70.3311 46.7222C72.4024 42.5467 75.2628 39.3247 78.9122 37.0562C82.5945 34.7876 86.7864 33.6533 91.4879 33.6533C98.7538 33.6533 104.622 36.1685 109.094 41.1987C113.598 46.229 115.85 52.9196 115.85 61.2705V61.9116C115.85 67.1063 114.847 71.7749 112.842 75.9175C110.869 80.0272 108.025 83.2327 104.31 85.5342C100.628 87.8356 96.3866 88.9863 91.5865 88.9863C84.3534 88.9863 78.4848 86.4712 73.9805 81.4409C69.5092 76.4106 67.2735 69.7529 67.2735 61.4678V60.8267ZM76.4463 61.9116C76.4463 67.8296 77.8108 72.5804 80.5396 76.1641C83.3013 79.7477 86.9836 81.5396 91.5865 81.5396C96.2222 81.5396 99.9045 79.7313 102.633 76.1147C105.362 72.4653 106.727 67.3693 106.727 60.8267C106.727 54.9744 105.329 50.2401 102.535 46.6235C99.773 42.9741 96.0907 41.1494 91.4879 41.1494C86.9836 41.1494 83.3506 42.9412 80.5889 46.5249C77.8272 50.1086 76.4463 55.2375 76.4463 61.9116ZM264.07 88.9863C256.837 88.9863 250.951 86.6191 246.414 81.8848C241.877 77.1175 239.609 70.7557 239.609 62.7993V61.1226C239.609 55.8293 240.611 51.1113 242.617 46.9688C244.655 42.7933 247.483 39.5384 251.099 37.2041C254.749 34.8369 258.694 33.6533 262.935 33.6533C269.873 33.6533 275.264 35.9383 279.111 40.5083C282.958 45.0783 284.881 51.6209 284.881 60.1362V63.9336H248.732C248.864 69.194 250.393 73.4517 253.319 76.7065C256.278 79.9285 260.026 81.5396 264.563 81.5396C267.785 81.5396 270.514 80.882 272.749 79.5669C274.985 78.2518 276.941 76.5093 278.618 74.3394L284.191 78.6792C279.719 85.5506 273.012 88.9863 264.07 88.9863ZM262.935 41.1494C259.253 41.1494 256.163 42.4974 253.664 45.1934C251.165 47.8564 249.62 51.6045 249.028 56.4375H275.758V55.7471C275.495 51.1113 274.245 47.5277 272.01 44.9961C269.774 42.4316 266.749 41.1494 262.935 41.1494Z" fill="#FF0000"/>
<path d="M118.815 60.8267C118.815 55.5991 119.834 50.8976 121.873 46.7222C123.944 42.5467 126.804 39.3247 130.454 37.0562C134.136 34.7876 138.328 33.6533 143.029 33.6533C150.295 33.6533 156.164 36.1685 160.635 41.1987C165.14 46.229 167.392 52.9196 167.392 61.2705V61.9116C167.392 67.1063 166.389 71.7749 164.383 75.9175C162.411 80.0272 159.567 83.2327 155.852 85.5342C152.169 87.8356 147.928 88.9863 143.128 88.9863C135.895 88.9863 130.026 86.4712 125.522 81.4409C121.051 76.4106 118.815 69.7529 118.815 61.4678V60.8267ZM127.988 61.9116C127.988 67.8296 129.352 72.5804 132.081 76.1641C134.843 79.7477 138.525 81.5396 143.128 81.5396C147.764 81.5396 151.446 79.7313 154.175 76.1147C156.904 72.4653 158.268 67.3693 158.268 60.8267C158.268 54.9744 156.871 50.2401 154.076 46.6235C151.315 42.9741 147.632 41.1494 143.029 41.1494C138.525 41.1494 134.892 42.9412 132.13 46.5249C129.369 50.1086 127.988 55.2375 127.988 61.9116Z" fill="#FFC700"/>
<path d="M170.603 60.876C170.603 52.5579 172.527 45.9495 176.373 41.0508C180.22 36.1191 185.316 33.6533 191.661 33.6533C198.171 33.6533 203.251 35.9548 206.9 40.5576L207.344 34.6396H215.678V86.7178C215.678 93.6221 213.624 99.0633 209.514 103.042C205.437 107.02 199.946 109.009 193.042 109.009C189.195 109.009 185.431 108.187 181.749 106.543C178.066 104.899 175.255 102.647 173.316 99.7866L178.05 94.3125C181.962 99.1455 186.746 101.562 192.401 101.562C196.84 101.562 200.292 100.313 202.758 97.814C205.256 95.3153 206.506 91.7974 206.506 87.2603V82.6738C202.856 86.8822 197.875 88.9863 191.563 88.9863C185.316 88.9863 180.253 86.4712 176.373 81.4409C172.527 76.4106 170.603 69.5557 170.603 60.876ZM179.776 61.9116C179.776 67.9282 181.009 72.6626 183.475 76.1147C185.941 79.534 189.393 81.2437 193.831 81.2437C199.585 81.2437 203.81 78.6299 206.506 73.4023V49.04C203.711 43.944 199.519 41.396 193.93 41.396C189.491 41.396 186.023 43.1221 183.524 46.5742C181.025 50.0264 179.776 55.1388 179.776 61.9116Z" fill="#0094FF"/>
<path d="M233.34 88H224.216V12.25H233.34V88Z" fill="#4FA261"/>
<path d="M360.983 22.7197H337.446V88H327.84V22.7197H304.353V14.7734H360.983V22.7197ZM386.689 41.9316C385.28 41.6969 383.755 41.5796 382.112 41.5796C376.01 41.5796 371.869 44.1781 369.69 49.375V88H360.385V33.583H369.438L369.589 39.8696C372.64 35.008 376.965 32.5771 382.565 32.5771C384.375 32.5771 385.75 32.8118 386.689 33.2812V41.9316ZM420.693 88C420.156 86.9271 419.72 85.016 419.385 82.2666C415.06 86.7594 409.897 89.0059 403.895 89.0059C398.53 89.0059 394.121 87.4971 390.668 84.4795C387.248 81.4284 385.538 77.5726 385.538 72.9121C385.538 67.2458 387.684 62.8535 391.975 59.7354C396.301 56.5837 402.369 55.0078 410.182 55.0078H419.234V50.7329C419.234 47.4806 418.262 44.8989 416.317 42.9878C414.373 41.0431 411.506 40.0708 407.717 40.0708C404.398 40.0708 401.615 40.909 399.369 42.5854C397.122 44.2619 395.999 46.2904 395.999 48.6709H386.644C386.644 45.9551 387.6 43.3398 389.511 40.8252C391.456 38.277 394.071 36.2653 397.357 34.79C400.676 33.3148 404.314 32.5771 408.27 32.5771C414.54 32.5771 419.452 34.153 423.006 37.3047C426.56 40.4229 428.404 44.7313 428.538 50.23V75.2759C428.538 80.2716 429.176 84.2448 430.45 87.1953V88H420.693ZM405.253 80.9087C408.17 80.9087 410.936 80.1543 413.551 78.6455C416.166 77.1367 418.061 75.1753 419.234 72.7612V61.5962H411.942C400.542 61.5962 394.842 64.9323 394.842 71.6045C394.842 74.5215 395.815 76.8014 397.759 78.4443C399.704 80.0872 402.202 80.9087 405.253 80.9087ZM445.745 33.583L446.046 40.4229C450.204 35.1924 455.636 32.5771 462.341 32.5771C473.842 32.5771 479.642 39.0649 479.743 52.0405V88H470.439V51.9902C470.405 48.0674 469.5 45.1672 467.723 43.2896C465.979 41.4119 463.247 40.4731 459.525 40.4731C456.507 40.4731 453.859 41.2778 451.579 42.8872C449.299 44.4966 447.522 46.6089 446.248 49.2241V88H436.943V33.583H445.745ZM519.279 73.5659C519.279 71.0513 518.323 69.1066 516.412 67.7319C514.535 66.3237 511.232 65.1167 506.505 64.1108C501.811 63.105 498.072 61.8979 495.289 60.4897C492.54 59.0815 490.495 57.4051 489.154 55.4604C487.846 53.5158 487.192 51.2023 487.192 48.52C487.192 44.0607 489.07 40.2887 492.825 37.2041C496.614 34.1195 501.442 32.5771 507.309 32.5771C513.479 32.5771 518.474 34.1698 522.297 37.355C526.152 40.5402 528.08 44.6139 528.08 49.5762H518.726C518.726 47.028 517.636 44.8319 515.457 42.9878C513.311 41.1437 510.595 40.2217 507.309 40.2217C503.923 40.2217 501.274 40.9593 499.363 42.4346C497.452 43.9098 496.496 45.8377 496.496 48.2183C496.496 50.4647 497.385 52.1579 499.162 53.2979C500.939 54.4378 504.141 55.5275 508.768 56.5669C513.428 57.6063 517.2 58.8468 520.084 60.2886C522.967 61.7303 525.096 63.4738 526.471 65.519C527.879 67.5308 528.583 69.9951 528.583 72.9121C528.583 77.7738 526.639 81.6799 522.749 84.6304C518.86 87.5474 513.814 89.0059 507.611 89.0059C503.252 89.0059 499.397 88.2347 496.044 86.6924C492.691 85.1501 490.059 83.0042 488.148 80.2549C486.27 77.472 485.331 74.4712 485.331 71.2524H494.635C494.803 74.3706 496.044 76.8517 498.357 78.6958C500.704 80.5063 503.789 81.4116 507.611 81.4116C511.132 81.4116 513.948 80.7075 516.06 79.2993C518.206 77.8576 519.279 75.9465 519.279 73.5659ZM544.633 88H535.329V10.75H544.633V88ZM586.985 88C586.449 86.9271 586.013 85.016 585.678 82.2666C581.353 86.7594 576.189 89.0059 570.188 89.0059C564.823 89.0059 560.414 87.4971 556.961 84.4795C553.541 81.4284 551.831 77.5726 551.831 72.9121C551.831 67.2458 553.977 62.8535 558.268 59.7354C562.593 56.5837 568.662 55.0078 576.474 55.0078H585.527V50.7329C585.527 47.4806 584.555 44.8989 582.61 42.9878C580.665 41.0431 577.799 40.0708 574.01 40.0708C570.691 40.0708 567.908 40.909 565.661 42.5854C563.415 44.2619 562.292 46.2904 562.292 48.6709H552.937C552.937 45.9551 553.893 43.3398 555.804 40.8252C557.748 38.277 560.364 36.2653 563.65 34.79C566.969 33.3148 570.607 32.5771 574.563 32.5771C580.833 32.5771 585.745 34.153 589.299 37.3047C592.853 40.4229 594.697 44.7313 594.831 50.23V75.2759C594.831 80.2716 595.468 84.2448 596.742 87.1953V88H586.985ZM571.546 80.9087C574.463 80.9087 577.229 80.1543 579.844 78.6455C582.459 77.1367 584.353 75.1753 585.527 72.7612V61.5962H578.234C566.835 61.5962 561.135 64.9323 561.135 71.6045C561.135 74.5215 562.107 76.8014 564.052 78.4443C565.997 80.0872 568.494 80.9087 571.546 80.9087ZM615.86 20.4062V33.583H626.019V40.7749H615.86V74.5215C615.86 76.7008 616.312 78.3438 617.218 79.4502C618.123 80.5231 619.665 81.0596 621.845 81.0596C622.917 81.0596 624.393 80.8584 626.27 80.4561V88C623.823 88.6706 621.442 89.0059 619.129 89.0059C614.971 89.0059 611.836 87.7485 609.724 85.2339C607.612 82.7192 606.555 79.1484 606.555 74.5215V40.7749H596.648V33.583H606.555V20.4062H615.86ZM653.334 89.0059C645.958 89.0059 639.956 86.5918 635.329 81.7637C630.702 76.902 628.389 70.4142 628.389 62.3003V60.5903C628.389 55.1922 629.411 50.3809 631.457 46.1562C633.535 41.8981 636.419 38.5788 640.107 36.1982C643.829 33.7842 647.852 32.5771 652.177 32.5771C659.252 32.5771 664.75 34.9074 668.673 39.5679C672.596 44.2284 674.558 50.9006 674.558 59.5845V63.457H637.693C637.827 68.8216 639.386 73.1636 642.37 76.4829C645.388 79.7687 649.21 81.4116 653.837 81.4116C657.123 81.4116 659.906 80.741 662.186 79.3999C664.465 78.0588 666.46 76.2817 668.17 74.0688L673.854 78.4946C669.294 85.5021 662.454 89.0059 653.334 89.0059ZM652.177 40.2217C648.422 40.2217 645.27 41.5964 642.722 44.3457C640.174 47.0615 638.598 50.8838 637.995 55.8125H665.253V55.1084C664.985 50.3809 663.711 46.7262 661.431 44.1445C659.151 41.5293 656.067 40.2217 652.177 40.2217Z" fill="#717171"/>
</g>
<defs>
<clipPath id="clip0">
<rect width="686" height="113" fill="white"/>
</clipPath>
</defs>
</svg>
