<svg width="769" height="111" viewBox="0 0 769 111" fill="none" xmlns="http://www.w3.org/2000/svg">
<g id="Frame 3">
<g id="Let&#226;&#128;&#153;s PRELOAD this!" filter="url(#filter0_d)">
<path d="M15.0244 78.4839H43.6621V85H7.01416V24.5703H15.0244V78.4839ZM65.0831 85.8301C58.9959 85.8301 54.0431 83.8379 50.2247 79.8535C46.4063 75.8415 44.4972 70.4875 44.4972 63.7915V62.3804C44.4972 57.9256 45.3411 53.9551 47.0289 50.4688C48.7444 46.9548 51.124 44.2155 54.1676 42.251C57.2389 40.2588 60.5592 39.2627 64.1285 39.2627C69.9667 39.2627 74.5045 41.1857 77.7418 45.0317C80.9791 48.8778 82.5978 54.384 82.5978 61.5503V64.7461H52.1754C52.2861 69.1732 53.5727 72.7563 56.0353 75.4956C58.5255 78.2072 61.6798 79.563 65.4981 79.563C68.2097 79.563 70.5063 79.0096 72.3878 77.9028C74.2693 76.7961 75.9156 75.3296 77.3268 73.5034L82.0167 77.1558C78.2537 82.9386 72.6091 85.8301 65.0831 85.8301ZM64.1285 45.5713C61.0296 45.5713 58.4286 46.7057 56.3258 48.9746C54.2229 51.2158 52.9225 54.3701 52.4244 58.4375H74.9195V57.8564C74.6982 53.9551 73.6467 50.9391 71.7652 48.8086C69.8837 46.6504 67.3382 45.5713 64.1285 45.5713ZM96.8386 29.2188V40.0928H105.222V46.0278H96.8386V73.877C96.8386 75.6755 97.2121 77.0312 97.9592 77.9443C98.7063 78.8298 99.979 79.2725 101.778 79.2725C102.663 79.2725 103.88 79.1064 105.43 78.7744V85C103.41 85.5534 101.446 85.8301 99.5363 85.8301C96.1053 85.8301 93.5183 84.7925 91.7751 82.7173C90.0319 80.6421 89.1604 77.6953 89.1604 73.877V46.0278H80.9841V40.0928H89.1604V29.2188H96.8386ZM109.668 41.5869L105.31 38.5986C107.884 35.0016 109.212 31.2109 109.295 27.2266V21.25H116.89V26.6455C116.862 29.4124 116.171 32.1794 114.815 34.9463C113.487 37.6855 111.771 39.8991 109.668 41.5869ZM142.544 73.0884C142.544 71.0132 141.756 69.4084 140.179 68.2739C138.629 67.1118 135.904 66.1157 132.002 65.2856C128.129 64.4556 125.044 63.4595 122.747 62.2974C120.478 61.1353 118.79 59.7518 117.683 58.147C116.604 56.5422 116.065 54.633 116.065 52.4194C116.065 48.7394 117.614 45.6266 120.713 43.0811C123.84 40.5355 127.824 39.2627 132.666 39.2627C137.758 39.2627 141.88 40.577 145.035 43.2056C148.217 45.8341 149.808 49.196 149.808 53.291H142.088C142.088 51.1882 141.189 49.3758 139.39 47.854C137.619 46.3322 135.378 45.5713 132.666 45.5713C129.872 45.5713 127.686 46.18 126.109 47.3975C124.532 48.6149 123.743 50.2059 123.743 52.1704C123.743 54.0243 124.476 55.4215 125.943 56.3623C127.409 57.3031 130.052 58.2023 133.87 59.0601C137.716 59.9178 140.829 60.9416 143.208 62.1313C145.588 63.3211 147.345 64.7599 148.479 66.4478C149.642 68.1079 150.223 70.1416 150.223 72.5488C150.223 76.5609 148.618 79.7843 145.408 82.2192C142.198 84.6265 138.034 85.8301 132.915 85.8301C129.318 85.8301 126.136 85.1937 123.37 83.9209C120.603 82.6481 118.431 80.8773 116.853 78.6084C115.304 76.3118 114.529 73.8354 114.529 71.1792H122.207C122.346 73.7524 123.37 75.8 125.279 77.3218C127.216 78.8159 129.761 79.563 132.915 79.563C135.821 79.563 138.145 78.9819 139.888 77.8198C141.659 76.63 142.544 75.0529 142.544 73.0884ZM643.11 29.2188V40.0928H651.493V46.0278H643.11V73.877C643.11 75.6755 643.483 77.0312 644.23 77.9443C644.977 78.8298 646.25 79.2725 648.049 79.2725C648.934 79.2725 650.152 79.1064 651.701 78.7744V85C649.681 85.5534 647.717 85.8301 645.807 85.8301C642.376 85.8301 639.789 84.7925 638.046 82.7173C636.303 80.6421 635.431 77.6953 635.431 73.877V46.0278H627.255V40.0928H635.431V29.2188H643.11ZM663.078 45.5298C666.481 41.3517 670.908 39.2627 676.359 39.2627C685.85 39.2627 690.637 44.6167 690.72 55.3247V85H683.041V55.2832C683.014 52.0459 682.267 49.6525 680.8 48.103C679.361 46.5535 677.106 45.7788 674.035 45.7788C671.545 45.7788 669.359 46.4429 667.477 47.771C665.596 49.0991 664.129 50.8423 663.078 53.0005V85H655.4V21.25H663.078V45.5298ZM705.458 85H697.78V40.0928H705.458V85ZM697.158 28.1812C697.158 26.936 697.531 25.8846 698.278 25.0269C699.053 24.1691 700.188 23.7402 701.682 23.7402C703.176 23.7402 704.31 24.1691 705.085 25.0269C705.86 25.8846 706.247 26.936 706.247 28.1812C706.247 29.4263 705.86 30.4639 705.085 31.2939C704.31 32.124 703.176 32.5391 701.682 32.5391C700.188 32.5391 699.053 32.124 698.278 31.2939C697.531 30.4639 697.158 29.4263 697.158 28.1812ZM738.833 73.0884C738.833 71.0132 738.044 69.4084 736.467 68.2739C734.917 67.1118 732.192 66.1157 728.291 65.2856C724.417 64.4556 721.332 63.4595 719.035 62.2974C716.766 61.1353 715.079 59.7518 713.972 58.147C712.893 56.5422 712.353 54.633 712.353 52.4194C712.353 48.7394 713.903 45.6266 717.002 43.0811C720.128 40.5355 724.113 39.2627 728.955 39.2627C734.046 39.2627 738.169 40.577 741.323 43.2056C744.505 45.8341 746.096 49.196 746.096 53.291H738.376C738.376 51.1882 737.477 49.3758 735.678 47.854C733.908 46.3322 731.666 45.5713 728.955 45.5713C726.16 45.5713 723.974 46.18 722.397 47.3975C720.82 48.6149 720.031 50.2059 720.031 52.1704C720.031 54.0243 720.765 55.4215 722.231 56.3623C723.698 57.3031 726.34 58.2023 730.158 59.0601C734.004 59.9178 737.117 60.9416 739.497 62.1313C741.876 63.3211 743.633 64.7599 744.768 66.4478C745.93 68.1079 746.511 70.1416 746.511 72.5488C746.511 76.5609 744.906 79.7843 741.696 82.2192C738.487 84.6265 734.323 85.8301 729.204 85.8301C725.607 85.8301 722.425 85.1937 719.658 83.9209C716.891 82.6481 714.719 80.8773 713.142 78.6084C711.592 76.3118 710.818 73.8354 710.818 71.1792H718.496C718.634 73.7524 719.658 75.8 721.567 77.3218C723.504 78.8159 726.049 79.563 729.204 79.563C732.109 79.563 734.433 78.9819 736.176 77.8198C737.947 76.63 738.833 75.0529 738.833 73.0884ZM760.005 67.9419H753.073L752.534 24.5703H760.586L760.005 67.9419ZM752.243 81.1401C752.243 79.895 752.617 78.8574 753.364 78.0273C754.139 77.1696 755.273 76.7407 756.767 76.7407C758.261 76.7407 759.396 77.1696 760.171 78.0273C760.945 78.8574 761.333 79.895 761.333 81.1401C761.333 82.3853 760.945 83.4229 760.171 84.2529C759.396 85.0553 758.261 85.4565 756.767 85.4565C755.273 85.4565 754.139 85.0553 753.364 84.2529C752.617 83.4229 752.243 82.3853 752.243 81.1401Z" fill="black"/>
<path d="M183.145 63.7085V85H170.694V24.5703H194.268C198.806 24.5703 202.79 25.4004 206.221 27.0605C209.68 28.7207 212.336 31.0864 214.19 34.1577C216.044 37.2013 216.971 40.6738 216.971 44.5752C216.971 50.4964 214.937 55.1725 210.87 58.6035C206.83 62.0068 201.227 63.7085 194.061 63.7085H183.145ZM183.145 53.623H194.268C197.561 53.623 200.065 52.8483 201.78 51.2988C203.524 49.7493 204.395 47.5358 204.395 44.6582C204.395 41.6976 203.524 39.3042 201.78 37.478C200.037 35.6519 197.63 34.7111 194.559 34.6558H183.145V53.623Z" fill="#E32424"/>
<path d="M258.133 62.8784H248.213V85H235.762V24.5703H258.216C265.354 24.5703 270.861 26.1613 274.734 29.3433C278.608 32.5252 280.545 37.0215 280.545 42.832C280.545 46.9548 279.646 50.3996 277.847 53.1665C276.076 55.9058 273.378 58.0916 269.754 59.7241L282.828 84.4189V85H269.463L258.133 62.8784ZM248.213 52.793H258.257C261.384 52.793 263.805 52.0044 265.52 50.4272C267.236 48.8224 268.094 46.6227 268.094 43.8281C268.094 40.9782 267.277 38.737 265.645 37.1045C264.04 35.472 261.564 34.6558 258.216 34.6558H248.213V52.793Z" fill="#6080D3"/>
<path d="M336.607 58.811H312.7V74.9976H340.757V85H300.249V24.5703H340.674V34.6558H312.7V49.0576H336.607V58.811Z" fill="#657505"/>
<path d="M370.713 74.9976H397.151V85H358.262V24.5703H370.713V74.9976Z" fill="#1FE6DA"/>
<path d="M464.17 56.1548C464.17 62.1037 463.118 67.3193 461.015 71.8018C458.913 76.2842 455.897 79.7428 451.968 82.1777C448.066 84.6126 443.584 85.8301 438.52 85.8301C433.512 85.8301 429.044 84.6265 425.115 82.2192C421.186 79.812 418.142 76.381 415.984 71.9263C413.826 67.4438 412.733 62.2974 412.705 56.4868V53.4985C412.705 47.5496 413.77 42.3201 415.901 37.8101C418.059 33.2723 421.089 29.7998 424.99 27.3926C428.919 24.9577 433.402 23.7402 438.437 23.7402C443.473 23.7402 447.942 24.9577 451.843 27.3926C455.772 29.7998 458.802 33.2723 460.932 37.8101C463.091 42.3201 464.17 47.5358 464.17 53.457V56.1548ZM451.553 53.4155C451.553 47.0793 450.418 42.2648 448.149 38.9722C445.88 35.6795 442.643 34.0332 438.437 34.0332C434.259 34.0332 431.036 35.6657 428.767 38.9307C426.498 42.168 425.35 46.9271 425.322 53.208V56.1548C425.322 62.325 426.457 67.1118 428.725 70.5151C430.994 73.9185 434.259 75.6201 438.52 75.6201C442.698 75.6201 445.908 73.9876 448.149 70.7227C450.39 67.43 451.525 62.6432 451.553 56.3623V53.4155Z" fill="#A84692"/>
<path d="M517.534 72.5488H495.703L491.552 85H478.313L500.808 24.5703H512.346L534.965 85H521.726L517.534 72.5488ZM499.065 62.4634H514.172L506.577 39.8438L499.065 62.4634Z" fill="#064A9A"/>
<path d="M550.81 85V24.5703H569.404C574.716 24.5703 579.461 25.7739 583.64 28.1812C587.845 30.5607 591.124 33.964 593.476 38.3911C595.828 42.7905 597.004 47.7987 597.004 53.4155V56.1963C597.004 61.8132 595.842 66.8075 593.517 71.1792C591.221 75.5509 587.97 78.9404 583.764 81.3477C579.558 83.7549 574.813 84.9723 569.528 85H550.81ZM563.261 34.6558V74.9976H569.279C574.149 74.9976 577.87 73.4066 580.444 70.2246C583.017 67.0426 584.331 62.491 584.387 56.5698V53.374C584.387 47.2314 583.114 42.583 580.568 39.4287C578.023 36.2467 574.301 34.6558 569.404 34.6558H563.261Z" fill="#6C7681"/>
</g>
</g>
<defs>
<filter id="filter0_d" x="3.01416" y="21.25" width="762.319" height="72.5801" filterUnits="userSpaceOnUse" color-interpolation-filters="sRGB">
<feFlood flood-opacity="0" result="BackgroundImageFix"/>
<feColorMatrix in="SourceAlpha" type="matrix" values="0 0 0 0 0 0 0 0 0 0 0 0 0 0 0 0 0 0 127 0"/>
<feOffset dy="4"/>
<feGaussianBlur stdDeviation="2"/>
<feColorMatrix type="matrix" values="0 0 0 0 0 0 0 0 0 0 0 0 0 0 0 0 0 0 0.25 0"/>
<feBlend mode="normal" in2="BackgroundImageFix" result="effect1_dropShadow"/>
<feBlend mode="normal" in="SourceGraphic" in2="effect1_dropShadow" result="shape"/>
</filter>
</defs>
</svg>
